<svg width="129" height="26" viewBox="0 0 129 26" fill="none" xmlns="http://www.w3.org/2000/svg">
<g id="Group 922">
<path id="Star 1" d="M11.4734 4.39082C11.9224 3.00885 13.8776 3.00885 14.3266 4.39082L15.4595 7.87745C15.6603 8.49548 16.2362 8.91392 16.886 8.91392L20.5521 8.91393C22.0052 8.91393 22.6094 10.7733 21.4338 11.6275L18.4679 13.7823C17.9421 14.1643 17.7222 14.8413 17.923 15.4594L19.0558 18.946C19.5049 20.328 17.9232 21.4771 16.7476 20.623L13.7817 18.4682C13.2559 18.0862 12.5441 18.0862 12.0183 18.4682L9.05242 20.623C7.87685 21.4771 6.29513 20.328 6.74415 18.946L7.87703 15.4594C8.07784 14.8413 7.85785 14.1643 7.33212 13.7823L4.36622 11.6275C3.19065 10.7733 3.79481 8.91393 5.2479 8.91393L8.91396 8.91392C9.5638 8.91392 10.1397 8.49548 10.3405 7.87745L11.4734 4.39082Z" fill="#FF9243"/>
<path id="Star 2" d="M37.2735 4.39058C37.7225 3.00861 39.6776 3.00861 40.1266 4.39058L41.2595 7.87721C41.4603 8.49524 42.0363 8.91368 42.6861 8.91368L46.3522 8.91368C47.8052 8.91368 48.4094 10.7731 47.2338 11.6272L44.2679 13.7821C43.7422 14.164 43.5222 14.8411 43.723 15.4591L44.8559 18.9457C45.3049 20.3277 43.7232 21.4769 42.5476 20.6228L39.5817 18.4679C39.056 18.086 38.3441 18.086 37.8184 18.4679L34.8525 20.6228C33.6769 21.4769 32.0952 20.3277 32.5442 18.9457L33.6771 15.4591C33.8779 14.8411 33.6579 14.164 33.1322 13.7821L30.1663 11.6272C28.9907 10.7731 29.5949 8.91368 31.0479 8.91368L34.714 8.91368C35.3638 8.91368 35.9398 8.49524 36.1406 7.87721L37.2735 4.39058Z" fill="#FF9243"/>
<path id="Star 3" d="M63.0734 4.39058C63.5224 3.00861 65.4775 3.00861 65.9266 4.39058L67.0594 7.87721C67.2602 8.49524 67.8362 8.91368 68.486 8.91368L72.1521 8.91368C73.6052 8.91368 74.2093 10.7731 73.0338 11.6272L70.0679 13.7821C69.5421 14.164 69.3221 14.8411 69.5229 15.4591L70.6558 18.9457C71.1048 20.3277 69.5231 21.4769 68.3476 20.6228L65.3817 18.4679C64.8559 18.086 64.144 18.086 63.6183 18.4679L60.6524 20.6228C59.4768 21.4769 57.8951 20.3277 58.3441 18.9457L59.477 15.4591C59.6778 14.8411 59.4578 14.164 58.9321 13.7821L55.9662 11.6272C54.7906 10.7731 55.3948 8.91368 56.8479 8.91368L60.5139 8.91368C61.1638 8.91368 61.7397 8.49524 61.9405 7.87721L63.0734 4.39058Z" fill="#FF9243"/>
<path id="Star 4" d="M88.8734 4.39058C89.3225 3.00861 91.2776 3.00861 91.7266 4.39058L92.8595 7.87721C93.0603 8.49524 93.6362 8.91368 94.2861 8.91368L97.9521 8.91368C99.4052 8.91368 100.009 10.7731 98.8338 11.6272L95.8679 13.7821C95.3422 14.164 95.1222 14.8411 95.323 15.4591L96.4559 18.9457C96.9049 20.3277 95.3232 21.4769 94.1476 20.6228L91.1817 18.4679C90.656 18.086 89.9441 18.086 89.4183 18.4679L86.4524 20.6228C85.2769 21.4769 83.6952 20.3277 84.1442 18.9457L85.2771 15.4591C85.4779 14.8411 85.2579 14.164 84.7321 13.7821L81.7662 11.6272C80.5907 10.7731 81.1948 8.91368 82.6479 8.91368L86.314 8.91368C86.9638 8.91368 87.5398 8.49524 87.7406 7.87721L88.8734 4.39058Z" fill="#FF9243"/>
<path id="Star 5" d="M114.673 4.39058C115.122 3.00861 117.078 3.00861 117.527 4.39058L118.659 7.87721C118.86 8.49524 119.436 8.91368 120.086 8.91368L123.752 8.91368C125.205 8.91368 125.809 10.7731 124.634 11.6272L121.668 13.7821C121.142 14.164 120.922 14.8411 121.123 15.4591L122.256 18.9457C122.705 20.3277 121.123 21.4769 119.948 20.6228L116.982 18.4679C116.456 18.086 115.744 18.086 115.218 18.4679L112.252 20.6228C111.077 21.4769 109.495 20.3277 109.944 18.9457L111.077 15.4591C111.278 14.8411 111.058 14.164 110.532 13.7821L107.566 11.6272C106.391 10.7731 106.995 8.91368 108.448 8.91368L112.114 8.91368C112.764 8.91368 113.34 8.49524 113.54 7.87721L114.673 4.39058Z" fill="#FF9243"/>
</g>
</svg>
